<svg xmlns="http://www.w3.org/2000/svg" viewBox="0 0 48 48" fill="none">
  <rect width="48" height="48" rx="14" fill="#11110f"/>
  <path d="M13 36V12h10.5c6 0 9.5 3 9.5 7.2 0 4.1-3.5 6.8-9.5 6.8H13l10.5-.1c6.5 0 10.5 2.3 10.5 6.1 0 3.7-3.7 5.7-9.4 5.7H19" stroke="#fff" stroke-width="6.5" stroke-linecap="round" stroke-linejoin="round"/>
  <path d="M13 36V12h10.5c6 0 9.5 3 9.5 7.2 0 4.1-3.5 6.8-9.5 6.8H13l10.5-.1c6.5 0 10.5 2.3 10.5 6.1 0 3.7-3.7 5.7-9.4 5.7H19" stroke="#d8ff52" stroke-width="1.7" stroke-linecap="round" stroke-linejoin="round" stroke-dasharray="2.5 3.4"/>
  <circle cx="13" cy="36" r="2.8" fill="#d8ff52"/>
  <circle cx="19" cy="37.7" r="2.8" fill="#d8ff52"/>
</svg>
